STARTFONT 2.1
COMMENT
COMMENT Converted from OpenType font "manrope-bold.otf" by "otf2bdf 3.0".
COMMENT
FONT -FreeType-Manrope-Bold-R-Normal--22-160-100-100-P-107-ISO10646-1
SIZE 16 100 100
FONTBOUNDINGBOX 23 29 -1 -6
STARTPROPERTIES 19
FOUNDRY "FreeType"
FAMILY_NAME "Manrope"
WEIGHT_NAME "Bold"
SLANT "R"
SETWIDTH_NAME "Normal"
ADD_STYLE_NAME ""
PIXEL_SIZE 22
POINT_SIZE 160
RESOLUTION_X 100
RESOLUTION_Y 100
SPACING "P"
AVERAGE_WIDTH 107
CHARSET_REGISTRY "ISO10646"
CHARSET_ENCODING "1"
FONT_ASCENT 23
FONT_DESCENT 6
COPYRIGHT "Copyright 2019-2021 The Manrope Project Authors (https://github.com/sharanda/manrope)"
_OTF_FONTFILE "manrope-bold.otf"
_OTF_PSNAME "Manrope-Bold"
ENDPROPERTIES
CHARS 191
STARTCHAR 0020
ENCODING 32
SWIDTH 180 0
DWIDTH 4 0
BBX 0 0 0 0
BITMAP
ENDCHAR
STARTCHAR 0021
ENCODING 33
SWIDTH 360 0
DWIDTH 8 0
BBX 2 16 3 0
BITMAP
C0
C0
C0
C0
C0
C0
C0
C0
C0
C0
C0
C0
00
00
C0
C0
ENDCHAR
STARTCHAR 0022
ENCODING 34
SWIDTH 450 0
DWIDTH 10 0
BBX 7 4 1 12
BITMAP
EE
EE
EE
EE
ENDCHAR
STARTCHAR 0023
ENCODING 35
SWIDTH 945 0
DWIDTH 21 0
BBX 18 16 1 0
BITMAP
01C600
01CE00
018E00
018C00
3FFFC0
3FFFC0
3FFFC0
071800
073800
7FFF80
7FFF80
FFFF00
0E7000
0C7000
0C6000
1C6000
ENDCHAR
STARTCHAR 0024
ENCODING 36
SWIDTH 630 0
DWIDTH 14 0
BBX 12 20 1 -2
BITMAP
0600
0600
1F80
3FC0
79E0
6070
E070
7000
7C00
3FC0
0FE0
01F0
0070
E070
E070
78F0
3FE0
1F80
0600
0600
ENDCHAR
STARTCHAR 0025
ENCODING 37
SWIDTH 900 0
DWIDTH 20 0
BBX 18 16 1 0
BITMAP
3C0100
7E0380
770700
E30E00
E31C00
773800
7E7000
3CE000
01C000
079F00
0F3F80
1E31C0
3C31C0
783980
703F80
200F00
ENDCHAR
STARTCHAR 0026
ENCODING 38
SWIDTH 675 0
DWIDTH 15 0
BBX 13 16 1 0
BITMAP
1F00
3FC0
7FC0
70C0
7000
7000
3800
3C00
7E70
E770
E3F0
E1F0
E0F0
7FF8
7FF8
1F90
ENDCHAR
STARTCHAR 0027
ENCODING 39
SWIDTH 270 0
DWIDTH 6 0
BBX 3 4 1 12
BITMAP
E0
E0
E0
E0
ENDCHAR
STARTCHAR 0028
ENCODING 40
SWIDTH 450 0
DWIDTH 10 0
BBX 6 23 3 -4
BITMAP
08
1C
38
38
70
70
60
60
E0
E0
E0
E0
E0
E0
E0
E0
60
70
70
38
38
1C
08
ENDCHAR
STARTCHAR 0029
ENCODING 41
SWIDTH 450 0
DWIDTH 10 0
BBX 6 23 1 -4
BITMAP
40
E0
70
70
38
38
18
1C
1C
1C
1C
0C
0C
1C
1C
1C
18
38
38
70
70
E0
40
ENDCHAR
STARTCHAR 002A
ENCODING 42
SWIDTH 450 0
DWIDTH 10 0
BBX 8 8 1 8
BITMAP
18
18
DF
FF
7C
7C
6E
24
ENDCHAR
STARTCHAR 002B
ENCODING 43
SWIDTH 585 0
DWIDTH 13 0
BBX 10 10 1 3
BITMAP
0C00
0C00
0C00
0C00
FFC0
FFC0
0C00
0C00
0C00
0C00
ENDCHAR
STARTCHAR 002C
ENCODING 44
SWIDTH 315 0
DWIDTH 7 0
BBX 3 6 1 -3
BITMAP
E0
E0
E0
20
60
C0
ENDCHAR
STARTCHAR 002D
ENCODING 45
SWIDTH 405 0
DWIDTH 9 0
BBX 7 2 1 6
BITMAP
FE
FE
ENDCHAR
STARTCHAR 002E
ENCODING 46
SWIDTH 315 0
DWIDTH 7 0
BBX 3 3 2 0
BITMAP
E0
E0
E0
ENDCHAR
STARTCHAR 002F
ENCODING 47
SWIDTH 450 0
DWIDTH 10 0
BBX 7 16 1 0
BITMAP
0E
0E
0E
0C
1C
1C
1C
18
38
38
30
30
70
70
60
E0
ENDCHAR
STARTCHAR 0030
ENCODING 48
SWIDTH 675 0
DWIDTH 15 0
BBX 11 16 2 0
BITMAP
1F00
7F80
FFC0
E0E0
C0E0
C0E0
C0E0
C0E0
C0E0
C0E0
C0E0
C0E0
E0E0
FFC0
7F80
1F00
ENDCHAR
STARTCHAR 0031
ENCODING 49
SWIDTH 450 0
DWIDTH 10 0
BBX 6 16 1 0
BITMAP
1C
7C
FC
DC
9C
1C
1C
1C
1C
1C
1C
1C
1C
1C
1C
1C
ENDCHAR
STARTCHAR 0032
ENCODING 50
SWIDTH 585 0
DWIDTH 13 0
BBX 11 16 1 0
BITMAP
1F00
3FC0
7FC0
E0E0
E0E0
00E0
00E0
01E0
03C0
0780
0F00
1E00
7800
FFE0
FFE0
FFE0
ENDCHAR
STARTCHAR 0033
ENCODING 51
SWIDTH 585 0
DWIDTH 13 0
BBX 11 16 1 0
BITMAP
FFC0
FFC0
FFC0
0380
0700
0E00
1F00
1F80
01C0
00C0
00E0
00E0
E1C0
FFC0
7F80
1E00
ENDCHAR
STARTCHAR 0034
ENCODING 52
SWIDTH 630 0
DWIDTH 14 0
BBX 11 16 1 0
BITMAP
0700
0700
0E00
0E00
1C00
1C00
3800
39C0
71C0
71C0
E1C0
FFE0
FFE0
FFE0
01C0
01C0
ENDCHAR
STARTCHAR 0035
ENCODING 53
SWIDTH 585 0
DWIDTH 13 0
BBX 11 16 1 0
BITMAP
7FC0
7FC0
7FC0
6000
6000
6000
7F80
7FC0
71C0
00E0
00E0
20E0
E0E0
7FC0
3F80
1F00
ENDCHAR
STARTCHAR 0036
ENCODING 54
SWIDTH 630 0
DWIDTH 14 0
BBX 11 16 2 0
BITMAP
1F00
7F80
FF80
E000
C000
C000
DF00
FFC0
E1C0
E0C0
C0E0
C0E0
E1C0
FFC0
7F80
1E00
ENDCHAR
STARTCHAR 0037
ENCODING 55
SWIDTH 540 0
DWIDTH 12 0
BBX 10 16 1 0
BITMAP
FFC0
FFC0
FFC0
0380
0380
0380
0700
0700
0E00
0E00
0C00
1C00
1C00
3800
3800
3000
ENDCHAR
STARTCHAR 0038
ENCODING 56
SWIDTH 630 0
DWIDTH 14 0
BBX 11 16 1 0
BITMAP
1F00
3FC0
7FC0
70E0
70E0
71E0
7FC0
3FC0
7FE0
70E0
E0E0
E0E0
70E0
7FE0
3FC0
1F00
ENDCHAR
STARTCHAR 0039
ENCODING 57
SWIDTH 630 0
DWIDTH 14 0
BBX 11 16 1 0
BITMAP
1F00
3FC0
7FC0
70E0
E0E0
E060
E0E0
71E0
7FE0
3F60
0060
00E0
00E0
3BC0
7FC0
1F00
ENDCHAR
STARTCHAR 003A
ENCODING 58
SWIDTH 360 0
DWIDTH 8 0
BBX 3 10 2 1
BITMAP
E0
E0
E0
00
00
00
00
E0
E0
E0
ENDCHAR
STARTCHAR 003B
ENCODING 59
SWIDTH 360 0
DWIDTH 8 0
BBX 3 15 2 -3
BITMAP
E0
E0
E0
00
00
00
00
00
00
E0
E0
E0
20
60
C0
ENDCHAR
STARTCHAR 003C
ENCODING 60
SWIDTH 630 0
DWIDTH 14 0
BBX 7 11 3 1
BITMAP
04
0E
1C
38
70
E0
70
3C
1E
0E
04
ENDCHAR
STARTCHAR 003D
ENCODING 61
SWIDTH 765 0
DWIDTH 17 0
BBX 11 6 3 5
BITMAP
FFE0
FFE0
0000
0000
FFE0
FFE0
ENDCHAR
STARTCHAR 003E
ENCODING 62
SWIDTH 630 0
DWIDTH 14 0
BBX 7 10 4 1
BITMAP
40
E0
70
38
1C
0E
1C
38
70
60
ENDCHAR
STARTCHAR 003F
ENCODING 63
SWIDTH 540 0
DWIDTH 12 0
BBX 10 16 1 0
BITMAP
1F00
7F80
7FC0
E1C0
01C0
01C0
01C0
0780
0F00
0E00
0C00
1C00
0000
1C00
1C00
1C00
ENDCHAR
STARTCHAR 0040
ENCODING 64
SWIDTH 900 0
DWIDTH 20 0
BBX 17 16 2 -2
BITMAP
07F000
1FFC00
381E00
700600
E3F700
C7F300
CE7300
CC3380
CC3300
CE7300
C7FF00
E3DE00
700000
380000
1FE000
07E000
ENDCHAR
STARTCHAR 0041
ENCODING 65
SWIDTH 675 0
DWIDTH 15 0
BBX 13 16 1 0
BITMAP
0F80
0F80
0F80
1DC0
1DC0
19C0
38C0
38E0
38E0
7060
7FF0
7FF0
7FF0
E038
E038
C018
ENDCHAR
STARTCHAR 0042
ENCODING 66
SWIDTH 630 0
DWIDTH 14 0
BBX 11 16 2 0
BITMAP
FF00
FFC0
FFC0
C0C0
C0E0
C0C0
C3C0
FF80
FFC0
C0E0
C060
C060
C0E0
FFE0
FFC0
FF80
ENDCHAR
STARTCHAR 0043
ENCODING 67
SWIDTH 720 0
DWIDTH 16 0
BBX 14 16 1 0
BITMAP
0FC0
1FF0
7FF8
703C
E01C
E000
E000
C000
C000
E000
E000
E01C
703C
7FF8
1FF0
0FC0
ENDCHAR
STARTCHAR 0044
ENCODING 68
SWIDTH 720 0
DWIDTH 16 0
BBX 12 16 2 0
BITMAP
FF00
FFC0
FFE0
C0E0
C070
C070
C030
C030
C030
C030
C070
C070
C0E0
FFE0
FFC0
FF00
ENDCHAR
STARTCHAR 0045
ENCODING 69
SWIDTH 585 0
DWIDTH 13 0
BBX 10 16 2 0
BITMAP
FFC0
FFC0
FFC0
C000
C000
C000
FF80
FF80
FF80
C000
C000
C000
C000
FFC0
FFC0
FFC0
ENDCHAR
STARTCHAR 0046
ENCODING 70
SWIDTH 540 0
DWIDTH 12 0
BBX 9 16 2 0
BITMAP
FF80
FF80
FF80
C000
C000
C000
C000
FF00
FF00
FF00
C000
C000
C000
C000
C000
C000
ENDCHAR
STARTCHAR 0047
ENCODING 71
SWIDTH 720 0
DWIDTH 16 0
BBX 15 16 1 0
BITMAP
0FC0
1FF0
3FF8
703C
E01C
E010
E000
E000
C07E
E07E
E00C
E01C
703C
7FF8
3FF0
0FC0
ENDCHAR
STARTCHAR 0048
ENCODING 72
SWIDTH 720 0
DWIDTH 16 0
BBX 12 16 2 0
BITMAP
C030
C030
C030
C030
C030
C030
FFF0
FFF0
FFF0
C030
C030
C030
C030
C030
C030
C030
ENDCHAR
STARTCHAR 0049
ENCODING 73
SWIDTH 270 0
DWIDTH 6 0
BBX 2 16 2 0
BITMAP
C0
C0
C0
C0
C0
C0
C0
C0
C0
C0
C0
C0
C0
C0
C0
C0
ENDCHAR
STARTCHAR 004A
ENCODING 74
SWIDTH 495 0
DWIDTH 11 0
BBX 9 16 0 0
BITMAP
0180
0180
0180
0180
0180
0180
0180
0180
0180
0180
0180
0180
E380
FF80
7F00
3E00
ENDCHAR
STARTCHAR 004B
ENCODING 75
SWIDTH 630 0
DWIDTH 14 0
BBX 12 16 2 0
BITMAP
C0E0
C1E0
C3C0
C380
C700
CE00
DC00
F800
FC00
DE00
CE00
C700
C380
C1C0
C0E0
C070
ENDCHAR
STARTCHAR 004C
ENCODING 76
SWIDTH 540 0
DWIDTH 12 0
BBX 10 16 2 0
BITMAP
C000
C000
C000
C000
C000
C000
C000
C000
C000
C000
C000
C000
C000
FFC0
FFC0
FFC0
ENDCHAR
STARTCHAR 004D
ENCODING 77
SWIDTH 855 0
DWIDTH 19 0
BBX 15 16 2 0
BITMAP
C006
E00E
E00E
F01E
F01E
F83E
F83E
DC76
DC76
CEE6
CEE6
C7C6
C7C6
C386
C386
C106
ENDCHAR
STARTCHAR 004E
ENCODING 78
SWIDTH 720 0
DWIDTH 16 0
BBX 12 16 2 0
BITMAP
E030
E030
F030
F830
F830
DC30
DE30
CE30
C730
C7B0
C3B0
C1F0
C1F0
C0F0
C070
C070
ENDCHAR
STARTCHAR 004F
ENCODING 79
SWIDTH 765 0
DWIDTH 17 0
BBX 15 16 1 0
BITMAP
0FC0
1FF0
7FF8
703C
E01C
E00E
E00E
C00E
C00E
E00E
E00E
E01C
703C
7FF8
1FF0
0FC0
ENDCHAR
STARTCHAR 0050
ENCODING 80
SWIDTH 630 0
DWIDTH 14 0
BBX 12 16 2 0
BITMAP
FF80
FFC0
FFE0
C0E0
C060
C070
C060
C0E0
FFE0
FFC0
FC00
C000
C000
C000
C000
C000
ENDCHAR
STARTCHAR 0051
ENCODING 81
SWIDTH 765 0
DWIDTH 17 0
BBX 15 16 1 0
BITMAP
0FC0
1FF0
7FF8
703C
E01C
E00E
E00E
C00E
C00E
E00E
E02E
E07C
707C
7FFC
1FFE
0FC4
ENDCHAR
STARTCHAR 0052
ENCODING 82
SWIDTH 675 0
DWIDTH 15 0
BBX 12 16 2 0
BITMAP
FF80
FFC0
FFE0
C0E0
C060
C070
C060
C0E0
FFE0
FFC0
FF80
C1C0
C1C0
C0E0
C0E0
C0F0
ENDCHAR
STARTCHAR 0053
ENCODING 83
SWIDTH 675 0
DWIDTH 15 0
BBX 13 16 1 0
BITMAP
1F80
3FE0
7FF0
7070
E038
7000
7E00
3FC0
0FF0
00F0
0038
E038
F078
7FF0
3FE0
0F80
ENDCHAR
STARTCHAR 0054
ENCODING 84
SWIDTH 585 0
DWIDTH 13 0
BBX 13 16 0 0
BITMAP
FFF8
FFF8
FFF8
0700
0700
0700
0700
0700
0700
0700
0700
0700
0700
0700
0700
0700
ENDCHAR
STARTCHAR 0055
ENCODING 85
SWIDTH 720 0
DWIDTH 16 0
BBX 12 16 2 0
BITMAP
C030
C030
C030
C030
C030
C030
C030
C030
C030
C030
C030
E070
E070
7FE0
3FC0
1F80
ENDCHAR
STARTCHAR 0056
ENCODING 86
SWIDTH 630 0
DWIDTH 14 0
BBX 14 16 0 0
BITMAP
E01C
601C
7018
7038
3038
3830
3870
3870
1C60
1CE0
1CE0
0CC0
0FC0
0FC0
07C0
0780
ENDCHAR
STARTCHAR 0057
ENCODING 87
SWIDTH 990 0
DWIDTH 22 0
BBX 21 16 0 0
BITMAP
E07038
607838
707838
70F830
30F870
38FC70
38DC70
39CC60
19CEE0
1D8EE0
1D86C0
0F87C0
0F87C0
0F0780
0F0380
070380
ENDCHAR
STARTCHAR 0058
ENCODING 88
SWIDTH 675 0
DWIDTH 15 0
BBX 13 16 1 0
BITMAP
E038
F070
70F0
38E0
3DC0
1FC0
0F80
0F00
0F00
0F80
1FC0
39C0
38E0
70F0
E070
E038
ENDCHAR
STARTCHAR 0059
ENCODING 89
SWIDTH 630 0
DWIDTH 14 0
BBX 13 16 0 0
BITMAP
E038
7038
7870
38F0
1CE0
1DC0
0FC0
0F80
0780
0700
0700
0700
0700
0700
0700
0700
ENDCHAR
STARTCHAR 005A
ENCODING 90
SWIDTH 675 0
DWIDTH 15 0
BBX 13 16 1 0
BITMAP
7FF8
7FF0
7FE0
01E0
01C0
03C0
0380
0700
0F00
0E00
1E00
1C00
3800
7FF0
7FF0
FFF0
ENDCHAR
STARTCHAR 005B
ENCODING 91
SWIDTH 405 0
DWIDTH 9 0
BBX 5 25 3 -5
BITMAP
F8
F8
C0
C0
C0
C0
C0
C0
C0
C0
C0
C0
C0
C0
C0
C0
C0
C0
C0
C0
C0
C0
C0
F8
F8
ENDCHAR
STARTCHAR 005C
ENCODING 92
SWIDTH 450 0
DWIDTH 10 0
BBX 7 16 1 0
BITMAP
E0
60
70
70
30
30
38
38
18
1C
1C
1C
0C
0E
0E
0E
ENDCHAR
STARTCHAR 005D
ENCODING 93
SWIDTH 405 0
DWIDTH 9 0
BBX 5 25 1 -5
BITMAP
F8
F8
18
18
18
18
18
18
18
18
18
18
18
18
18
18
18
18
18
18
18
18
18
F8
F8
ENDCHAR
STARTCHAR 005E
ENCODING 94
SWIDTH 675 0
DWIDTH 15 0
BBX 11 7 2 9
BITMAP
0400
0E00
1F00
3B80
71C0
E0E0
4040
ENDCHAR
STARTCHAR 005F
ENCODING 95
SWIDTH 675 0
DWIDTH 15 0
BBX 15 2 0 -3
BITMAP
FFFE
FFFE
ENDCHAR
STARTCHAR 0060
ENCODING 96
SWIDTH 540 0
DWIDTH 12 0
BBX 3 4 4 18
BITMAP
C0
C0
60
60
ENDCHAR
STARTCHAR 0061
ENCODING 97
SWIDTH 585 0
DWIDTH 13 0
BBX 10 12 1 0
BITMAP
1F00
7FC0
7BC0
20C0
0FC0
7FC0
F8C0
E0C0
E1C0
E3C0
7FC0
3CC0
ENDCHAR
STARTCHAR 0062
ENCODING 98
SWIDTH 630 0
DWIDTH 14 0
BBX 11 16 2 0
BITMAP
C000
C000
C000
C000
DF00
FF80
F3C0
E1C0
C0E0
C0E0
C0E0
C0E0
E1C0
F3C0
FF80
DF00
ENDCHAR
STARTCHAR 0063
ENCODING 99
SWIDTH 585 0
DWIDTH 13 0
BBX 11 12 1 0
BITMAP
1F00
3FC0
7FE0
E0E0
E000
E000
E000
E000
E0E0
7FE0
3FC0
1F00
ENDCHAR
STARTCHAR 0064
ENCODING 100
SWIDTH 630 0
DWIDTH 14 0
BBX 11 16 1 0
BITMAP
00E0
00E0
00E0
00E0
1FE0
3FE0
79E0
E0E0
E060
E060
E060
E060
E0E0
79E0
3FE0
1F60
ENDCHAR
STARTCHAR 0065
ENCODING 101
SWIDTH 585 0
DWIDTH 13 0
BBX 11 12 1 0
BITMAP
1F00
3FC0
79E0
E0E0
E060
FFE0
FFE0
E000
E0C0
7FE0
3FC0
1F00
ENDCHAR
STARTCHAR 0066
ENCODING 102
SWIDTH 360 0
DWIDTH 8 0
BBX 7 16 1 0
BITMAP
1E
3E
38
30
FE
FE
30
30
30
30
30
30
30
30
30
30
ENDCHAR
STARTCHAR 0067
ENCODING 103
SWIDTH 630 0
DWIDTH 14 0
BBX 11 18 1 -6
BITMAP
1F60
3FE0
79E0
E0E0
E060
E060
E060
E060
E0E0
79E0
3FE0
1FE0
00E0
00E0
31E0
7FC0
3F80
0600
ENDCHAR
STARTCHAR 0068
ENCODING 104
SWIDTH 630 0
DWIDTH 14 0
BBX 11 16 2 0
BITMAP
C000
C000
C000
C400
DF80
FFC0
E1C0
E1C0
C0E0
C0E0
C0E0
C0E0
C0E0
C0E0
C0E0
C0E0
ENDCHAR
STARTCHAR 0069
ENCODING 105
SWIDTH 270 0
DWIDTH 6 0
BBX 2 16 2 0
BITMAP
C0
C0
00
00
C0
C0
C0
C0
C0
C0
C0
C0
C0
C0
C0
C0
ENDCHAR
STARTCHAR 006A
ENCODING 106
SWIDTH 270 0
DWIDTH 6 0
BBX 5 22 0 -6
BITMAP
38
38
00
00
38
38
38
38
38
38
38
38
38
38
38
38
38
38
38
F8
F0
C0
ENDCHAR
STARTCHAR 006B
ENCODING 107
SWIDTH 540 0
DWIDTH 12 0
BBX 10 16 2 0
BITMAP
C000
C000
C000
C000
C3C0
C380
C700
CE00
DE00
FC00
FC00
DE00
CE00
C700
C380
C3C0
ENDCHAR
STARTCHAR 006C
ENCODING 108
SWIDTH 270 0
DWIDTH 6 0
BBX 2 16 2 0
BITMAP
C0
C0
C0
C0
C0
C0
C0
C0
C0
C0
C0
C0
C0
C0
C0
C0
ENDCHAR
STARTCHAR 006D
ENCODING 109
SWIDTH 900 0
DWIDTH 20 0
BBX 17 12 2 0
BITMAP
DE3E00
FFFF00
F7EF00
C3C380
C18380
C18380
C18380
C18380
C18380
C18380
C18380
C18380
ENDCHAR
STARTCHAR 006E
ENCODING 110
SWIDTH 630 0
DWIDTH 14 0
BBX 11 13 2 0
BITMAP
0400
DF80
FFC0
E1C0
E1C0
C0E0
C0E0
C0E0
C0E0
C0E0
C0E0
C0E0
C0E0
ENDCHAR
STARTCHAR 006F
ENCODING 111
SWIDTH 630 0
DWIDTH 14 0
BBX 12 12 1 0
BITMAP
1F00
3FC0
7FE0
E0E0
E070
E070
E070
E070
E0E0
7FE0
3FC0
1F00
ENDCHAR
STARTCHAR 0070
ENCODING 112
SWIDTH 630 0
DWIDTH 14 0
BBX 11 17 2 -5
BITMAP
DF00
FF80
F3C0
E1C0
C0E0
C0E0
C0E0
C0E0
E1C0
F3C0
FF80
DF00
C000
C000
C000
C000
C000
ENDCHAR
STARTCHAR 0071
ENCODING 113
SWIDTH 630 0
DWIDTH 14 0
BBX 11 17 1 -5
BITMAP
1F60
3FE0
79E0
E0E0
E060
E060
E060
E060
E0E0
79E0
3FE0
1FE0
00E0
00E0
00E0
00E0
00E0
ENDCHAR
STARTCHAR 0072
ENCODING 114
SWIDTH 405 0
DWIDTH 9 0
BBX 6 12 2 0
BITMAP
DC
FC
F8
E0
C0
C0
C0
C0
C0
C0
C0
C0
ENDCHAR
STARTCHAR 0073
ENCODING 115
SWIDTH 540 0
DWIDTH 12 0
BBX 10 12 1 0
BITMAP
3F00
7F80
F3C0
E1C0
F000
7F00
1FC0
01C0
E1C0
F1C0
7F80
3F00
ENDCHAR
STARTCHAR 0074
ENCODING 116
SWIDTH 450 0
DWIDTH 10 0
BBX 9 15 0 0
BITMAP
3800
3800
3800
FF80
FF80
3800
3800
3800
3800
3800
3800
3800
1C00
1F80
0F80
ENDCHAR
STARTCHAR 0075
ENCODING 117
SWIDTH 630 0
DWIDTH 14 0
BBX 11 13 1 -1
BITMAP
E060
E060
E060
E060
E060
E060
E060
E060
E0E0
71E0
7FE0
3F60
0400
ENDCHAR
STARTCHAR 0076
ENCODING 118
SWIDTH 540 0
DWIDTH 12 0
BBX 11 12 1 0
BITMAP
C0E0
E0C0
E1C0
61C0
7180
7380
3300
3B00
1F00
1E00
1E00
0E00
ENDCHAR
STARTCHAR 0077
ENCODING 119
SWIDTH 810 0
DWIDTH 18 0
BBX 16 12 1 0
BITMAP
C183
E387
E3C7
63C6
67CE
76EE
766C
3E7C
3C7C
3C38
1C38
1838
ENDCHAR
STARTCHAR 0078
ENCODING 120
SWIDTH 540 0
DWIDTH 12 0
BBX 11 12 1 0
BITMAP
E1E0
F1C0
7380
3F00
1F00
1E00
1E00
3F00
3F80
7380
E1C0
E0E0
ENDCHAR
STARTCHAR 0079
ENCODING 121
SWIDTH 540 0
DWIDTH 12 0
BBX 12 17 0 -5
BITMAP
E070
7070
7060
30E0
38E0
38C0
1DC0
1D80
0F80
0F80
0700
0700
0700
0600
0E00
0C00
1C00
ENDCHAR
STARTCHAR 007A
ENCODING 122
SWIDTH 540 0
DWIDTH 12 0
BBX 10 12 1 0
BITMAP
FFC0
FF80
0380
0700
0E00
0C00
1C00
3800
3000
7000
FFC0
FFC0
ENDCHAR
STARTCHAR 007B
ENCODING 123
SWIDTH 450 0
DWIDTH 10 0
BBX 6 25 3 -5
BITMAP
1C
3C
7C
70
70
70
70
70
70
70
70
E0
E0
70
70
70
70
70
70
70
70
70
3C
3C
0C
ENDCHAR
STARTCHAR 007C
ENCODING 124
SWIDTH 315 0
DWIDTH 7 0
BBX 3 16 2 0
BITMAP
E0
E0
E0
E0
E0
E0
E0
E0
E0
E0
E0
E0
E0
E0
E0
E0
ENDCHAR
STARTCHAR 007D
ENCODING 125
SWIDTH 450 0
DWIDTH 10 0
BBX 6 25 1 -5
BITMAP
E0
F0
F0
38
38
38
38
38
38
38
38
1C
1C
38
38
38
38
38
38
38
38
38
F0
F0
C0
ENDCHAR
STARTCHAR 007E
ENCODING 126
SWIDTH 720 0
DWIDTH 16 0
BBX 11 6 2 4
BITMAP
3000
7C60
7E60
EFE0
63E0
01C0
ENDCHAR
STARTCHAR 00A0
ENCODING 160
SWIDTH 180 0
DWIDTH 4 0
BBX 0 0 0 0
BITMAP
ENDCHAR
STARTCHAR 00A1
ENCODING 161
SWIDTH 360 0
DWIDTH 8 0
BBX 2 16 3 -4
BITMAP
C0
C0
00
00
C0
C0
C0
C0
C0
C0
C0
C0
C0
C0
C0
C0
ENDCHAR
STARTCHAR 00A2
ENCODING 162
SWIDTH 585 0
DWIDTH 13 0
BBX 11 17 1 -1
BITMAP
0600
0600
1F00
3FC0
7FE0
F0E0
E080
E000
E000
E000
E080
70E0
7FC0
3F80
0E00
0600
0600
ENDCHAR
STARTCHAR 00A3
ENCODING 163
SWIDTH 585 0
DWIDTH 13 0
BBX 11 16 1 0
BITMAP
0F00
1F80
3FC0
38E0
3880
3800
3800
FF00
FF00
FF00
3800
3800
3800
FFC0
FFC0
FFC0
ENDCHAR
STARTCHAR 00A4
ENCODING 164
SWIDTH 675 0
DWIDTH 15 0
BBX 13 14 1 1
BITMAP
4010
EFB8
FFF8
78F0
7070
6030
6030
6030
6030
7070
78F0
FFF8
EFB8
4010
ENDCHAR
STARTCHAR 00A5
ENCODING 165
SWIDTH 630 0
DWIDTH 14 0
BBX 13 16 0 0
BITMAP
E038
7038
7870
38F0
1CE0
1DC0
0FC0
0F80
3FE0
3FE0
0700
0700
3FE0
3FE0
0700
0700
ENDCHAR
STARTCHAR 00A6
ENCODING 166
SWIDTH 315 0
DWIDTH 7 0
BBX 3 21 2 -5
BITMAP
E0
E0
E0
E0
E0
E0
E0
E0
E0
00
00
E0
E0
E0
E0
E0
E0
E0
E0
E0
E0
ENDCHAR
STARTCHAR 00A7
ENCODING 167
SWIDTH 540 0
DWIDTH 12 0
BBX 10 18 1 -3
BITMAP
3E00
7F00
7380
E180
F000
7E00
3F80
77C0
E1C0
E1C0
FFC0
7F80
0FC0
01C0
E1C0
73C0
7F80
1F00
ENDCHAR
STARTCHAR 00A8
ENCODING 168
SWIDTH 540 0
DWIDTH 12 0
BBX 7 2 3 18
BITMAP
CE
CE
ENDCHAR
STARTCHAR 00A9
ENCODING 169
SWIDTH 900 0
DWIDTH 20 0
BBX 18 18 1 -2
BITMAP
03F000
0FFC00
3FFE00
380F00
71E380
E3F180
E739C0
C601C0
C601C0
C601C0
C601C0
E739C0
E3F180
71E380
780700
3C1F00
1FFE00
07F800
ENDCHAR
STARTCHAR 00AA
ENCODING 170
SWIDTH 315 0
DWIDTH 7 0
BBX 5 6 1 6
BITMAP
78
D8
38
E8
98
F8
ENDCHAR
STARTCHAR 00AB
ENCODING 171
SWIDTH 585 0
DWIDTH 13 0
BBX 9 10 2 1
BITMAP
1080
1980
3380
6300
E600
C600
6700
3380
3980
1080
ENDCHAR
STARTCHAR 00AC
ENCODING 172
SWIDTH 585 0
DWIDTH 13 0
BBX 11 5 1 4
BITMAP
FFE0
FFE0
0060
0060
0060
ENDCHAR
STARTCHAR 00AD
ENCODING 173
SWIDTH 405 0
DWIDTH 9 0
BBX 7 2 1 6
BITMAP
FE
FE
ENDCHAR
STARTCHAR 00AE
ENCODING 174
SWIDTH 675 0
DWIDTH 15 0
BBX 11 12 2 6
BITMAP
0E00
3F80
71C0
C0C0
DE60
9260
9E60
D260
D2E0
60C0
7F80
1F00
ENDCHAR
STARTCHAR 00AF
ENCODING 175
SWIDTH 495 0
DWIDTH 11 0
BBX 6 2 3 19
BITMAP
FC
FC
ENDCHAR
STARTCHAR 00B0
ENCODING 176
SWIDTH 450 0
DWIDTH 10 0
BBX 8 8 1 8
BITMAP
3C
7E
EE
C7
C7
EE
7E
3C
ENDCHAR
STARTCHAR 00B1
ENCODING 177
SWIDTH 585 0
DWIDTH 13 0
BBX 11 11 1 1
BITMAP
0600
0600
0600
FFE0
FFE0
0600
0600
0600
0000
FFE0
FFE0
ENDCHAR
STARTCHAR 00B2
ENCODING 178
SWIDTH 405 0
DWIDTH 9 0
BBX 7 10 1 6
BITMAP
38
7E
C6
06
06
0C
38
70
FE
FE
ENDCHAR
STARTCHAR 00B3
ENCODING 179
SWIDTH 405 0
DWIDTH 9 0
BBX 7 11 1 5
BITMAP
FC
FC
1C
38
38
3C
06
06
CC
7C
30
ENDCHAR
STARTCHAR 00B4
ENCODING 180
SWIDTH 540 0
DWIDTH 12 0
BBX 3 4 5 18
BITMAP
60
60
C0
C0
ENDCHAR
STARTCHAR 00B5
ENCODING 181
SWIDTH 630 0
DWIDTH 14 0
BBX 11 17 2 -5
BITMAP
C0E0
C0E0
C0E0
C0E0
C0E0
C0E0
C0E0
C0E0
E1E0
E1E0
FFE0
FEE0
C800
C000
C000
C000
C000
ENDCHAR
STARTCHAR 00B6
ENCODING 182
SWIDTH 720 0
DWIDTH 16 0
BBX 14 19 1 -3
BITMAP
1F9C
7F9C
7F9C
FF9C
FF9C
FF9C
FF9C
FF9C
7F9C
3F9C
039C
039C
039C
039C
039C
039C
039C
039C
039C
ENDCHAR
STARTCHAR 00B7
ENCODING 183
SWIDTH 270 0
DWIDTH 6 0
BBX 4 3 1 5
BITMAP
60
F0
60
ENDCHAR
STARTCHAR 00B8
ENCODING 184
SWIDTH 405 0
DWIDTH 9 0
BBX 4 6 3 -5
BITMAP
60
40
E0
30
E0
E0
ENDCHAR
STARTCHAR 00B9
ENCODING 185
SWIDTH 360 0
DWIDTH 8 0
BBX 4 10 1 6
BITMAP
70
F0
B0
30
30
30
30
30
30
30
ENDCHAR
STARTCHAR 00BA
ENCODING 186
SWIDTH 360 0
DWIDTH 8 0
BBX 6 6 1 6
BITMAP
78
CC
8C
8C
CC
78
ENDCHAR
STARTCHAR 00BB
ENCODING 187
SWIDTH 585 0
DWIDTH 13 0
BBX 9 10 2 1
BITMAP
8400
CC00
E600
6300
3380
3180
7300
E600
CE00
8400
ENDCHAR
STARTCHAR 00BC
ENCODING 188
SWIDTH 1035 0
DWIDTH 23 0
BBX 19 16 1 0
BITMAP
700200
F00600
B00E00
300C00
301800
303800
307180
306180
30C300
31C300
018640
030640
060C40
0E0FE0
0C0FE0
080040
ENDCHAR
STARTCHAR 00BD
ENCODING 189
SWIDTH 1035 0
DWIDTH 23 0
BBX 20 16 1 0
BITMAP
700200
F00600
B00E00
300C00
301800
303800
3071E0
3063F0
30C230
31C010
038030
030060
0600C0
0E0180
0C07F0
0807F0
ENDCHAR
STARTCHAR 00BE
ENCODING 190
SWIDTH 1035 0
DWIDTH 23 0
BBX 21 16 1 0
BITMAP
FC0100
FC0380
1C0300
380600
380E00
3C0C00
061860
0630C0
CC70C0
7C6180
30C180
018330
038330
0307F8
0607F8
060030
ENDCHAR
STARTCHAR 00BF
ENCODING 191
SWIDTH 540 0
DWIDTH 12 0
BBX 10 17 1 -5
BITMAP
0E00
0E00
0E00
0000
0E00
0E00
1E00
3C00
3800
7000
E000
E000
E1C0
F1C0
7F80
3F00
0400
ENDCHAR
STARTCHAR 00C0
ENCODING 192
SWIDTH 675 0
DWIDTH 15 0
BBX 13 22 1 0
BITMAP
0C00
0C00
0C00
0600
0000
0000
0F80
0F80
0F80
1DC0
1DC0
1DC0
38C0
38E0
38E0
7060
7FF0
7FF0
7FF0
E038
E038
C018
ENDCHAR
STARTCHAR 00C1
ENCODING 193
SWIDTH 675 0
DWIDTH 15 0
BBX 13 22 1 0
BITMAP
0180
0180
0300
0300
0000
0000
0F80
0F80
0F80
1DC0
1DC0
19C0
38C0
38E0
38E0
7060
7FF0
7FF0
7FF0
E038
E038
C018
ENDCHAR
STARTCHAR 00C2
ENCODING 194
SWIDTH 675 0
DWIDTH 15 0
BBX 13 21 1 0
BITMAP
0700
0F80
1DC0
38E0
0000
0F80
0F80
0F80
1DC0
1DC0
19C0
38C0
38E0
38E0
7060
7FF0
7FF0
7FF0
E038
E038
C018
ENDCHAR
STARTCHAR 00C3
ENCODING 195
SWIDTH 675 0
DWIDTH 15 0
BBX 13 22 1 0
BITMAP
1C00
1E40
13C0
01C0
0000
0000
0F80
0F80
0F80
1DC0
1DC0
19C0
38C0
38E0
38E0
7060
7FF0
7FF0
7FF0
E038
E038
C018
ENDCHAR
STARTCHAR 00C4
ENCODING 196
SWIDTH 675 0
DWIDTH 15 0
BBX 13 20 1 0
BITMAP
18C0
18C0
0000
0000
0F80
0F80
0F80
1DC0
1DC0
19C0
38C0
38E0
38E0
7060
7FF0
7FF0
7FF0
E038
E038
C018
ENDCHAR
STARTCHAR 00C5
ENCODING 197
SWIDTH 675 0
DWIDTH 15 0
BBX 13 23 1 0
BITMAP
0700
0F80
0880
0980
0F80
0200
0000
0F80
0F80
0F80
1DC0
1DC0
19C0
38C0
38E0
38E0
7060
7FF0
7FF0
7FF0
E038
E038
C018
ENDCHAR
STARTCHAR 00C6
ENCODING 198
SWIDTH 945 0
DWIDTH 21 0
BBX 19 16 1 0
BITMAP
0FFFE0
0FFFE0
0FFFE0
1CE000
1CE000
18E000
38FF80
38FF80
38FF80
70E000
7FE000
7FE000
7FE000
E0FFE0
E0FFE0
C0FFE0
ENDCHAR
STARTCHAR 00C7
ENCODING 199
SWIDTH 720 0
DWIDTH 16 0
BBX 14 21 1 -5
BITMAP
0FC0
1FF0
7FF8
703C
E01C
E008
E000
C000
C000
E000
E000
E01C
701C
7C78
3FF0
0FC0
0300
0380
0080
0380
0380
ENDCHAR
STARTCHAR 00C8
ENCODING 200
SWIDTH 585 0
DWIDTH 13 0
BBX 10 22 2 0
BITMAP
3000
1800
1800
0C00
0000
0000
FFC0
FFC0
FFC0
C000
C000
C000
FF80
FF80
FF80
C000
C000
C000
C000
FFC0
FFC0
FFC0
ENDCHAR
STARTCHAR 00C9
ENCODING 201
SWIDTH 585 0
DWIDTH 13 0
BBX 10 22 2 0
BITMAP
0300
0600
0600
0C00
0000
0000
FFC0
FFC0
FFC0
C000
C000
C000
FF80
FF80
FF80
C000
C000
C000
C000
FFC0
FFC0
FFC0
ENDCHAR
STARTCHAR 00CA
ENCODING 202
SWIDTH 585 0
DWIDTH 13 0
BBX 10 21 2 0
BITMAP
1C00
3E00
7700
E380
0000
FFC0
FFC0
FFC0
C000
C000
C000
FF80
FF80
FF80
C000
C000
C000
C000
FFC0
FFC0
FFC0
ENDCHAR
STARTCHAR 00CB
ENCODING 203
SWIDTH 585 0
DWIDTH 13 0
BBX 10 20 2 0
BITMAP
7300
7300
0000
0000
FFC0
FFC0
FFC0
C000
C000
C000
FF80
FF80
FF80
C000
C000
C000
C000
FFC0
FFC0
FFC0
ENDCHAR
STARTCHAR 00CC
ENCODING 204
SWIDTH 270 0
DWIDTH 6 0
BBX 3 22 1 0
BITMAP
C0
C0
C0
60
00
00
60
60
60
60
60
60
60
60
60
60
60
60
60
60
60
60
ENDCHAR
STARTCHAR 00CD
ENCODING 205
SWIDTH 270 0
DWIDTH 6 0
BBX 4 22 2 0
BITMAP
30
60
60
C0
00
00
C0
C0
C0
C0
C0
C0
C0
C0
C0
C0
C0
C0
C0
C0
C0
C0
ENDCHAR
STARTCHAR 00CE
ENCODING 206
SWIDTH 270 0
DWIDTH 6 0
BBX 8 21 -1 0
BITMAP
1C
3C
66
C3
00
18
18
18
18
18
18
18
18
18
18
18
18
18
18
18
18
ENDCHAR
STARTCHAR 00CF
ENCODING 207
SWIDTH 270 0
DWIDTH 6 0
BBX 7 20 0 0
BITMAP
CE
CE
00
00
30
30
30
30
30
30
30
30
30
30
30
30
30
30
30
30
ENDCHAR
STARTCHAR 00D0
ENCODING 208
SWIDTH 720 0
DWIDTH 16 0
BBX 15 16 0 0
BITMAP
3FC0
3FF0
3FF8
3038
301C
301C
300C
FF0E
FF0E
300C
301C
301C
3038
3FF8
3FF0
3FC0
ENDCHAR
STARTCHAR 00D1
ENCODING 209
SWIDTH 720 0
DWIDTH 16 0
BBX 12 21 2 0
BITMAP
1CC0
3FC0
31C0
0000
0000
E030
E030
F030
F830
F830
DC30
DE30
CE30
C730
C7B0
C3B0
C1F0
C1F0
C0F0
C070
C070
ENDCHAR
STARTCHAR 00D2
ENCODING 210
SWIDTH 765 0
DWIDTH 17 0
BBX 15 21 1 0
BITMAP
0600
0600
0300
0300
0000
0FC0
1FF0
7FF8
703C
E01C
E00E
E00E
C00E
C00E
E00E
E00E
E01C
703C
7FF8
1FF0
0FC0
ENDCHAR
STARTCHAR 00D3
ENCODING 211
SWIDTH 765 0
DWIDTH 17 0
BBX 15 21 1 0
BITMAP
00C0
0180
0180
0380
0000
0FC0
1FF0
7FF8
703C
E01C
E00E
E00E
C00E
C00E
E00E
E00E
E01C
703C
7FF8
1FF0
0FC0
ENDCHAR
STARTCHAR 00D4
ENCODING 212
SWIDTH 765 0
DWIDTH 17 0
BBX 15 21 1 0
BITMAP
0380
07C0
0CE0
1C60
0000
0FC0
1FF0
7FF8
703C
E01C
E00E
E00E
C00E
C00E
E00E
E00E
E01C
703C
7FF8
1FF0
0FC0
ENDCHAR
STARTCHAR 00D5
ENCODING 213
SWIDTH 765 0
DWIDTH 17 0
BBX 15 21 1 0
BITMAP
0E00
0F20
09E0
00E0
0000
0FC0
1FF0
7FF8
703C
E01C
E00E
E00E
C00E
C00E
E00E
E00E
E01C
703C
7FF8
1FF0
0FC0
ENDCHAR
STARTCHAR 00D6
ENCODING 214
SWIDTH 765 0
DWIDTH 17 0
BBX 15 20 1 0
BITMAP
0CE0
0CE0
0000
0000
0FC0
1FF0
7FF8
703C
E01C
E00E
E00E
C00E
C00E
E00E
E00E
E01C
703C
7FF8
1FF0
0FC0
ENDCHAR
STARTCHAR 00D7
ENCODING 215
SWIDTH 495 0
DWIDTH 11 0
BBX 9 9 1 3
BITMAP
4100
E380
7700
3E00
1C00
3E00
7700
6380
0100
ENDCHAR
STARTCHAR 00D8
ENCODING 216
SWIDTH 765 0
DWIDTH 17 0
BBX 15 16 1 0
BITMAP
0FC4
1FFE
7FFC
703C
E07C
E0EE
E1EE
C3CE
C78E
EF0E
FE0E
FC1C
783C
7FF8
FFF0
4FC0
ENDCHAR
STARTCHAR 00D9
ENCODING 217
SWIDTH 720 0
DWIDTH 16 0
BBX 12 22 2 0
BITMAP
0C00
0C00
0C00
0600
0000
0000
C030
C030
C030
C030
C030
C030
C030
C030
C030
C030
C030
E070
E070
7FE0
3FC0
1F80
ENDCHAR
STARTCHAR 00DA
ENCODING 218
SWIDTH 720 0
DWIDTH 16 0
BBX 12 22 2 0
BITMAP
0380
0300
0300
0600
0000
0000
C030
C030
C030
C030
C030
C030
C030
C030
C030
C030
C030
E070
E070
7FE0
3FC0
1F80
ENDCHAR
STARTCHAR 00DB
ENCODING 219
SWIDTH 720 0
DWIDTH 16 0
BBX 12 21 2 0
BITMAP
0F00
0F00
1980
30C0
0000
C030
C030
C030
C030
C030
C030
C030
C030
C030
C030
C030
E070
E070
7FE0
3FC0
1F80
ENDCHAR
STARTCHAR 00DC
ENCODING 220
SWIDTH 720 0
DWIDTH 16 0
BBX 12 20 2 0
BITMAP
39C0
39C0
0000
0000
C030
C030
C030
C030
C030
C030
C030
C030
C030
C030
C030
E070
E070
7FE0
3FC0
1F80
ENDCHAR
STARTCHAR 00DD
ENCODING 221
SWIDTH 630 0
DWIDTH 14 0
BBX 13 22 0 0
BITMAP
0180
0180
0300
0300
0000
0000
E038
7038
7870
38F0
1CE0
1DC0
0FC0
0F80
0780
0700
0700
0700
0700
0700
0700
0700
ENDCHAR
STARTCHAR 00DE
ENCODING 222
SWIDTH 630 0
DWIDTH 14 0
BBX 11 16 2 0
BITMAP
C000
C000
C000
FF00
FFC0
FFE0
C0E0
C060
C060
C0E0
FFE0
FFC0
FF00
C000
C000
C000
ENDCHAR
STARTCHAR 00DF
ENCODING 223
SWIDTH 630 0
DWIDTH 14 0
BBX 11 16 2 0
BITMAP
3E00
7F00
FF80
E380
C180
C180
C780
CF00
CFC0
C1C0
C0E0
C0E0
C0E0
CFC0
CFC0
CF00
ENDCHAR
STARTCHAR 00E0
ENCODING 224
SWIDTH 585 0
DWIDTH 13 0
BBX 10 17 1 0
BITMAP
1800
1C00
0C00
0C00
0000
1F00
7FC0
7BC0
20C0
0FC0
7FC0
F8C0
E0C0
E1C0
E3C0
7FC0
3CC0
ENDCHAR
STARTCHAR 00E1
ENCODING 225
SWIDTH 585 0
DWIDTH 13 0
BBX 10 17 1 0
BITMAP
0300
0300
0600
0600
0000
1F00
7FC0
7BC0
20C0
0FC0
7FC0
F8C0
E0C0
E1C0
E3C0
7FC0
3CC0
ENDCHAR
STARTCHAR 00E2
ENCODING 226
SWIDTH 585 0
DWIDTH 13 0
BBX 10 17 1 0
BITMAP
0E00
1F00
3B80
71C0
0000
1F00
7FC0
7BC0
20C0
0FC0
7FC0
F8C0
E0C0
E1C0
E3C0
7FC0
3CC0
ENDCHAR
STARTCHAR 00E3
ENCODING 227
SWIDTH 585 0
DWIDTH 13 0
BBX 10 17 1 0
BITMAP
1800
3EC0
37C0
0380
0000
1F00
7FC0
7BC0
20C0
0FC0
7FC0
F8C0
E0C0
E1C0
E3C0
7FC0
3CC0
ENDCHAR
STARTCHAR 00E4
ENCODING 228
SWIDTH 585 0
DWIDTH 13 0
BBX 10 16 1 0
BITMAP
3980
3980
0000
0000
1F00
7FC0
7BC0
20C0
0FC0
7FC0
F8C0
E0C0
E1C0
E3C0
7FC0
3CC0
ENDCHAR
STARTCHAR 00E5
ENCODING 229
SWIDTH 585 0
DWIDTH 13 0
BBX 10 19 1 0
BITMAP
0400
1F00
1900
1100
1F00
0E00
0000
1F00
7FC0
7BC0
20C0
0FC0
7FC0
F8C0
E0C0
E1C0
E3C0
7FC0
3CC0
ENDCHAR
STARTCHAR 00E6
ENCODING 230
SWIDTH 945 0
DWIDTH 21 0
BBX 19 12 1 0
BITMAP
1F1F00
3FBF80
7BF9C0
60E0C0
00E0E0
1FFFE0
7FFFE0
E0E000
E1E0C0
E3FFC0
FF3FC0
3E1F00
ENDCHAR
STARTCHAR 00E7
ENCODING 231
SWIDTH 585 0
DWIDTH 13 0
BBX 11 17 1 -5
BITMAP
1F00
3FC0
7FE0
E0E0
E000
E000
E000
E000
E0E0
79E0
3FC0
1F00
0400
0E00
0300
0F00
0E00
ENDCHAR
STARTCHAR 00E8
ENCODING 232
SWIDTH 585 0
DWIDTH 13 0
BBX 11 17 1 0
BITMAP
0C00
0C00
0C00
0600
0000
1F00
3FC0
79E0
E0E0
E060
FFE0
FFE0
E000
E0C0
7FE0
3FC0
1F00
ENDCHAR
STARTCHAR 00E9
ENCODING 233
SWIDTH 585 0
DWIDTH 13 0
BBX 11 17 1 0
BITMAP
0300
0300
0300
0600
0000
1F00
3FC0
79E0
E0E0
E060
FFE0
FFE0
E000
E0C0
7FE0
3FC0
1F00
ENDCHAR
STARTCHAR 00EA
ENCODING 234
SWIDTH 585 0
DWIDTH 13 0
BBX 11 17 1 0
BITMAP
0E00
1F00
1980
31C0
0000
1F00
3FC0
79E0
E0E0
E060
FFE0
FFE0
E000
E0C0
7FE0
3FC0
1F00
ENDCHAR
STARTCHAR 00EB
ENCODING 235
SWIDTH 585 0
DWIDTH 13 0
BBX 11 16 1 0
BITMAP
3980
3980
0000
0000
1F00
3FC0
79E0
E0E0
E060
FFE0
FFE0
E000
E0C0
7FE0
3FC0
1F00
ENDCHAR
STARTCHAR 00EC
ENCODING 236
SWIDTH 270 0
DWIDTH 6 0
BBX 4 18 0 0
BITMAP
E0
60
60
30
00
00
30
30
30
30
30
30
30
30
30
30
30
30
ENDCHAR
STARTCHAR 00ED
ENCODING 237
SWIDTH 270 0
DWIDTH 6 0
BBX 4 18 2 0
BITMAP
30
60
60
C0
00
00
C0
C0
C0
C0
C0
C0
C0
C0
C0
C0
C0
C0
ENDCHAR
STARTCHAR 00EE
ENCODING 238
SWIDTH 270 0
DWIDTH 6 0
BBX 8 17 -1 0
BITMAP
1C
3E
67
E3
00
18
18
18
18
18
18
18
18
18
18
18
18
ENDCHAR
STARTCHAR 00EF
ENCODING 239
SWIDTH 270 0
DWIDTH 6 0
BBX 7 16 0 0
BITMAP
CE
CE
00
00
30
30
30
30
30
30
30
30
30
30
30
30
ENDCHAR
STARTCHAR 00F0
ENCODING 240
SWIDTH 585 0
DWIDTH 13 0
BBX 11 17 1 0
BITMAP
0D80
0F80
0F80
07C0
06C0
00E0
3FE0
7FE0
71E0
E0E0
E060
E060
E060
E0E0
79E0
3FC0
1F00
ENDCHAR
STARTCHAR 00F1
ENCODING 241
SWIDTH 630 0
DWIDTH 14 0
BBX 11 17 2 0
BITMAP
3980
7F80
6700
0000
0400
DF80
FFC0
E1C0
E1C0
C0E0
C0E0
C0E0
C0E0
C0E0
C0E0
C0E0
C0E0
ENDCHAR
STARTCHAR 00F2
ENCODING 242
SWIDTH 630 0
DWIDTH 14 0
BBX 12 17 1 0
BITMAP
1800
0C00
0C00
0600
0000
1F00
3FC0
7FE0
E0E0
E070
E070
E070
E070
E0E0
7FE0
3FC0
1F00
ENDCHAR
STARTCHAR 00F3
ENCODING 243
SWIDTH 630 0
DWIDTH 14 0
BBX 12 17 1 0
BITMAP
0300
0300
0600
0600
0000
1F00
3FC0
7FE0
E0E0
E070
E070
E070
E070
E0E0
7FE0
3FC0
1F00
ENDCHAR
STARTCHAR 00F4
ENCODING 244
SWIDTH 630 0
DWIDTH 14 0
BBX 12 17 1 0
BITMAP
0E00
1F00
1980
31C0
0000
1F00
3FC0
7FE0
E0E0
E070
E070
E070
E070
E0E0
7FE0
3FC0
1F00
ENDCHAR
STARTCHAR 00F5
ENCODING 245
SWIDTH 630 0
DWIDTH 14 0
BBX 12 17 1 0
BITMAP
1800
3EC0
37C0
0380
0000
1F00
3FC0
7FE0
E0E0
E070
E070
E070
E070
E0E0
7FE0
3FC0
1F00
ENDCHAR
STARTCHAR 00F6
ENCODING 246
SWIDTH 630 0
DWIDTH 14 0
BBX 12 16 1 0
BITMAP
3980
3980
0000
0000
1F00
3FC0
7FE0
E0E0
E070
E070
E070
E070
E0E0
7FE0
3FC0
1F00
ENDCHAR
STARTCHAR 00F7
ENCODING 247
SWIDTH 540 0
DWIDTH 12 0
BBX 10 10 1 3
BITMAP
0C00
0C00
0C00
0000
FFC0
FFC0
0000
0C00
0C00
0C00
ENDCHAR
STARTCHAR 00F8
ENCODING 248
SWIDTH 630 0
DWIDTH 14 0
BBX 12 12 1 0
BITMAP
1F20
3FF0
7FE0
E1E0
E3F0
E770
EE70
FC70
F8E0
FFE0
FFC0
5F00
ENDCHAR
STARTCHAR 00F9
ENCODING 249
SWIDTH 630 0
DWIDTH 14 0
BBX 11 19 1 -1
BITMAP
1800
0C00
0C00
0600
0000
0000
E060
E060
E060
E060
E060
E060
E060
E060
E0E0
71E0
7FE0
3F60
0400
ENDCHAR
STARTCHAR 00FA
ENCODING 250
SWIDTH 630 0
DWIDTH 14 0
BBX 11 19 1 -1
BITMAP
0300
0300
0600
0600
0000
0000
E060
E060
E060
E060
E060
E060
E060
E060
E0E0
71E0
7FE0
3F60
0400
ENDCHAR
STARTCHAR 00FB
ENCODING 251
SWIDTH 630 0
DWIDTH 14 0
BBX 11 18 1 -1
BITMAP
0E00
1F00
3980
31C0
0000
E060
E060
E060
E060
E060
E060
E060
E060
E0E0
71E0
7FE0
3F60
0400
ENDCHAR
STARTCHAR 00FC
ENCODING 252
SWIDTH 630 0
DWIDTH 14 0
BBX 11 17 1 -1
BITMAP
3980
3980
0000
0000
E060
E060
E060
E060
E060
E060
E060
E060
E0E0
71E0
7FE0
3F60
0400
ENDCHAR
STARTCHAR 00FD
ENCODING 253
SWIDTH 540 0
DWIDTH 12 0
BBX 12 23 0 -5
BITMAP
0180
0380
0300
0300
0000
0000
E070
7070
7060
30E0
38E0
38C0
1DC0
1D80
0F80
0F80
0700
0700
0700
0600
0E00
0C00
1C00
ENDCHAR
STARTCHAR 00FE
ENCODING 254
SWIDTH 630 0
DWIDTH 14 0
BBX 11 21 2 -5
BITMAP
C000
C000
C000
C000
DF00
FF80
F3C0
E1C0
C0E0
C0E0
C0E0
C0E0
E1C0
F3C0
FF80
DF00
C000
C000
C000
C000
C000
ENDCHAR
STARTCHAR 00FF
ENCODING 255
SWIDTH 540 0
DWIDTH 12 0
BBX 12 21 0 -5
BITMAP
19C0
19C0
0000
0000
E070
7070
7060
30E0
38E0
38C0
1DC0
1D80
0F80
0F80
0700
0700
0700
0600
0E00
0C00
1C00
ENDCHAR
ENDFONT
